<svg width="17" height="16" viewBox="0 0 17 16" fill="none" xmlns="http://www.w3.org/2000/svg">
<path d="M0.504578 1.21723C0.504578 1.39072 0.56487 1.5387 0.685456 1.66117C0.806041 1.78364 0.951748 1.84487 1.12258 1.84487H3.11223C3.26297 1.84487 3.39611 1.8959 3.51167 1.99795C3.62723 2.10001 3.69506 2.22248 3.71516 2.36536L5.05667 9.92768L5.34306 11.3667C5.4335 11.8055 5.64955 12.1653 5.99121 12.4459C6.33286 12.7266 6.72477 12.8669 7.16691 12.8669H14.7336C14.9045 12.8669 15.0502 12.8057 15.1708 12.6832C15.2913 12.5607 15.3541 12.4102 15.3592 12.2316C15.3642 12.053 15.3039 11.9025 15.1783 11.78C15.0527 11.6575 14.9045 11.5963 14.7336 11.5963H7.16691C7.02623 11.5963 6.89811 11.5504 6.78255 11.4585C6.66699 11.3667 6.59413 11.2493 6.56399 11.1064L6.42833 10.4482H14.1759C14.6281 10.4482 15.0301 10.2976 15.3818 9.99657C15.7335 9.69551 15.9445 9.31535 16.0149 8.8561L16.6178 4.92185C16.658 4.6463 16.6404 4.37585 16.565 4.11051C16.4897 3.84516 16.364 3.60788 16.1882 3.39867C16.0123 3.18946 15.8013 3.02617 15.5551 2.9088C15.3089 2.79144 15.0502 2.73276 14.7789 2.73276H5.0416L4.93609 2.15104C4.8557 1.70199 4.64467 1.32949 4.30301 1.03353C3.96135 0.737566 3.56443 0.589585 3.11223 0.589585H1.12258C0.951748 0.589585 0.806041 0.650819 0.685456 0.773286C0.56487 0.895753 0.504578 1.04373 0.504578 1.21723ZM6.17208 9.17758L5.26769 4.00335H14.7789C14.9698 4.00335 15.1281 4.07479 15.2537 4.21767C15.3793 4.36055 15.427 4.52894 15.3969 4.72284L14.7789 8.65709C14.7588 8.81017 14.6909 8.93519 14.5754 9.03215C14.4598 9.1291 14.3267 9.17758 14.1759 9.17758H6.17208ZM14.7186 14.9182C14.7186 14.6937 14.6457 14.5023 14.5 14.3441C14.3543 14.186 14.1759 14.1069 13.9649 14.1069C13.7539 14.1069 13.5755 14.186 13.4298 14.3441C13.2841 14.5023 13.2112 14.6937 13.2112 14.9182C13.2112 15.1427 13.2866 15.3341 13.4373 15.4923C13.5881 15.6505 13.7639 15.7296 13.9649 15.7296C14.1659 15.7296 14.3417 15.6505 14.4925 15.4923C14.6432 15.3341 14.7186 15.1427 14.7186 14.9182ZM7.42316 15.7296C7.21213 15.7296 7.03377 15.6505 6.88806 15.4923C6.74235 15.3341 6.6695 15.1427 6.6695 14.9182C6.6695 14.6937 6.74235 14.5023 6.88806 14.3441C7.03377 14.186 7.21213 14.1069 7.42316 14.1069C7.63418 14.1069 7.81255 14.186 7.95825 14.3441C8.10396 14.5023 8.17681 14.6937 8.17681 14.9182C8.17681 15.1427 8.10396 15.3341 7.95825 15.4923C7.81255 15.6505 7.63418 15.7296 7.42316 15.7296Z" fill="white"/>
</svg>
