<svg width="19" height="16" viewBox="0 0 19 16" fill="none" xmlns="http://www.w3.org/2000/svg">
<path d="M16.5251 2.58884C16.1305 2.19771 15.662 1.88744 15.1463 1.67576C14.6306 1.46407 14.0779 1.35512 13.5197 1.35512C12.9615 1.35512 12.4088 1.46407 11.8931 1.67576C11.3774 1.88744 10.9089 2.19771 10.5143 2.58884L9.69536 3.40018L8.87641 2.58884C8.07933 1.79916 6.99826 1.35553 5.87102 1.35553C4.74378 1.35553 3.66271 1.79916 2.86563 2.58884C2.06855 3.37851 1.62076 4.44954 1.62076 5.56631C1.62076 6.68308 2.06855 7.75411 2.86563 8.54379L3.68458 9.35513L9.69536 15.3101L15.7061 9.35513L16.5251 8.54379C16.9199 8.15285 17.2331 7.68868 17.4467 7.17779C17.6604 6.66691 17.7704 6.11932 17.7704 5.56631C17.7704 5.01331 17.6604 4.46572 17.4467 3.95484C17.2331 3.44395 16.9199 2.97978 16.5251 2.58884V2.58884Z" stroke="white" stroke-width="1.14813" stroke-linecap="round" stroke-linejoin="round"/>
</svg>
