<svg width="84" height="17" viewBox="0 0 84 17" fill="none" xmlns="http://www.w3.org/2000/svg">
<g clip-path="url(#clip0_51_2691)">
<path d="M8.07788 14.8149C6.44674 14.8149 5.02727 14.5114 3.81948 13.9044C2.6117 13.2974 1.67161 12.4397 0.999227 11.3313C0.333076 10.2229 0 8.91661 0 7.41236V7.39257C0 5.88832 0.333076 4.58529 0.999227 3.4835C1.67161 2.3751 2.6117 1.51742 3.81948 0.910436C5.02727 0.303459 6.44674 -3.05176e-05 8.07788 -3.05176e-05C9.70904 -3.05176e-05 11.1285 0.303459 12.3363 0.910436C13.544 1.51742 14.481 2.3751 15.1472 3.4835C15.8196 4.58529 16.1557 5.88832 16.1557 7.39257V7.41236C16.1557 8.91661 15.8196 10.2229 15.1472 11.3313C14.481 12.4397 13.544 13.2974 12.3363 13.9044C11.1285 14.5114 9.70904 14.8149 8.07788 14.8149ZM8.07788 12.9742C9.30432 12.9742 10.3689 12.7465 11.2717 12.2913C12.1744 11.8295 12.8748 11.1829 13.3729 10.3516C13.8771 9.52031 14.1293 8.54056 14.1293 7.41236V7.39257C14.1293 6.26438 13.8771 5.28464 13.3729 4.45334C12.8748 3.62205 12.1713 2.97878 11.2624 2.52355C10.3596 2.06831 9.29812 1.8407 8.07788 1.8407C6.85763 1.8407 5.79304 2.06831 4.88408 2.52355C3.98135 2.97878 3.27784 3.62205 2.77356 4.45334C2.2755 5.28464 2.02647 6.26438 2.02647 7.39257V7.41236C2.02647 8.54056 2.2755 9.52362 2.77356 10.3615C3.27784 11.1928 3.98135 11.8361 4.88408 12.2913C5.79304 12.7465 6.85763 12.9742 8.07788 12.9742ZM13.1207 16.1212L10.7095 13.5342L11.9389 12.3761L15.3003 16.1212H13.1207Z" fill="white"/>
<path d="M18.5818 14.5516L25.3523 0.271149H26.9585V2.3296H26.3982L20.6923 14.5516H18.5818ZM21.5048 10.5832L22.2799 8.92059H30.5632L31.3197 10.5832H21.5048ZM32.1414 14.5516L26.4355 2.3296V0.271149H27.4908L34.2519 14.5516H32.1414Z" fill="white"/>
<path d="M39.6131 14.5516V8.82166L33.2349 0.271149H35.5601L40.5656 7.01059H40.6217L45.6272 0.271149H47.9524L41.5835 8.82166V14.5516H39.6131Z" fill="white"/>
<path d="M50.936 14.5516V0.271149H52.7944L64.4956 13.3641L62.1143 11.6421H63.0014V0.271149H64.9438V14.5516H63.0762L51.3749 1.43892L53.7562 3.1609H52.8784V14.5516H50.936Z" fill="white"/>
<path d="M67.8528 14.5516L74.6233 0.271149H76.2295V2.3296H75.6692L69.9633 14.5516H67.8528ZM70.7757 10.5832L71.5509 8.92059H79.8341L80.5907 10.5832H70.7757ZM81.4124 14.5516L75.7065 2.3296V0.271149H76.7618L83.5229 14.5516H81.4124Z" fill="white"/>
</g>
<defs>
<clipPath id="clip0_51_2691">
<rect width="84" height="16.1212" fill="white"/>
</clipPath>
</defs>
</svg>
